<?xml version="1.0" encoding="utf-8"?>
<!-- Generator: Adobe Illustrator 23.0.6, SVG Export Plug-In . SVG Version: 6.00 Build 0)  -->
<svg version="1.1" id="Logo" xmlns="http://www.w3.org/2000/svg" xmlns:xlink="http://www.w3.org/1999/xlink" x="0px" y="0px"
	 viewBox="0 0 368.69 104.1" style="enable-background:new 0 0 368.69 104.1;" xml:space="preserve">
<style type="text/css">
	.st0{fill:#FFFFFF;}
	.st1{fill:none;stroke:#FFFFFF;stroke-width:1.5;stroke-miterlimit:10;}
	.st2{fill-rule:evenodd;clip-rule:evenodd;fill:#FFFFFF;}
</style>
<g>
	<g>
		<path class="st0" d="M0.04,76.9h7.31c5.74,0,6.82,3.83,6.82,10.36c0,3.22,0.49,10.59-6.99,10.59H0.04V76.9z M4.42,94.62h2.12
			c2.67,0,3.19-2,3.19-7.25c0-3.86,0-7.25-3.05-7.25H4.42V94.62z"/>
		<path class="st0" d="M17.12,90.33c0-4,0.58-7.43,5.98-7.43c5.4,0,5.98,3.42,5.98,7.43c0,4.58-0.7,7.8-5.98,7.8
			C17.81,98.13,17.12,94.91,17.12,90.33z M24.98,90.1c0-3.05-0.15-4.58-1.89-4.58c-1.74,0-1.89,1.54-1.89,4.58
			c0,4.47,0.38,5.42,1.89,5.42C24.6,95.52,24.98,94.56,24.98,90.1z"/>
		<path class="st0" d="M39.42,88.41c0-2.18-0.55-2.9-1.83-2.9c-1.74,0-1.89,1.54-1.89,4.58c0,4.47,0.38,5.42,1.89,5.42
			c1.28,0,1.89-1.16,1.89-3.08h4.09c0,3.97-2.15,5.69-5.98,5.69c-5.28,0-5.98-3.22-5.98-7.8c0-4,0.58-7.43,5.98-7.43
			c3.77,0,5.92,1.68,5.92,5.51H39.42z"/>
		<path class="st0" d="M44.81,83.19h1.65v-2.32l4.09-1.83v4.15h2.12v2.52h-2.12v7.83c0,1.1-0.03,1.83,1.31,1.83
			c0.26,0,0.52,0,0.73-0.06v2.52c-0.55,0.06-1.13,0.15-2.12,0.15c-3.54,0-4-2.35-4-3.25v-9.02h-1.65V83.19z"/>
		<path class="st0" d="M54.18,90.33c0-4,0.58-7.43,5.98-7.43c5.4,0,5.98,3.42,5.98,7.43c0,4.58-0.7,7.8-5.98,7.8
			S54.18,94.91,54.18,90.33z M62.04,90.1c0-3.05-0.15-4.58-1.89-4.58c-1.74,0-1.89,1.54-1.89,4.58c0,4.47,0.38,5.42,1.89,5.42
			C61.66,95.52,62.04,94.56,62.04,90.1z"/>
		<path class="st0" d="M72.92,83.19v1.89h0.06c0.75-1.68,2.15-2.18,3.8-2.18v3.65c-3.6-0.23-3.65,1.86-3.65,3.31v7.98h-4.09V83.19
			H72.92z"/>
		<path class="st0" d="M83.12,76.9v3.22h-4.09V76.9H83.12z M83.12,97.84h-4.09V83.19h4.09V97.84z"/>
		<path class="st0" d="M90.84,84.67h0.06c0.81-1.31,1.91-1.77,3.45-1.77c1.94,0,3.65,1.16,3.65,3.19v11.75h-4.09V87.75
			c0-1.31-0.23-2.32-1.54-2.32c-1.31,0-1.54,1.02-1.54,2.32v10.09h-4.09V83.19h4.09V84.67z"/>
		<path class="st0" d="M112.44,83.19v15.26c0,1.02,0.06,5.02-5.57,5.02c-3.05,0-5.66-0.78-5.74-4.35h4c0,0.61,0.09,1.13,0.35,1.48
			c0.26,0.38,0.73,0.58,1.36,0.58c1.02,0,1.51-0.96,1.51-2.44v-2.81h-0.06c-0.61,1.13-1.77,1.71-3.1,1.71
			c-4.5,0-4.29-4.12-4.29-7.43c0-3.22,0.06-7.31,4.32-7.31c1.45,0,2.7,0.64,3.28,2h0.06v-1.71H112.44z M106.67,95.12
			c1.48,0,1.68-1.54,1.68-4.64c0-3.22-0.15-5.05-1.65-5.05c-1.54,0-1.8,1.07-1.8,5.54C104.9,92.33,104.7,95.12,106.67,95.12z"/>
		<path class="st0" d="M116.04,94.01h3.8l-2.2,6.64h-2.78L116.04,94.01z"/>
		<path class="st0" d="M128.62,87.37c0-5.54,0-10.82,7.22-10.82c4.47,0,6.27,2.47,6.09,6.96h-4.29c0-2.78-0.49-3.83-1.8-3.83
			c-2.47,0-2.78,2.32-2.78,7.69s0.32,7.69,2.78,7.69c2.03,0,1.94-2.61,2-4.26h4.32c0,5.6-2.23,7.4-6.32,7.4
			C128.62,98.19,128.62,92.85,128.62,87.37z"/>
		<path class="st0" d="M149.18,76.9v20.94h-4.09V76.9H149.18z"/>
		<path class="st0" d="M156.58,91.17c0,1.74,0.06,4.35,1.86,4.35c1.45,0,1.74-1.39,1.74-2.61h4.15c-0.06,1.6-0.58,2.9-1.57,3.8
			c-0.96,0.9-2.41,1.42-4.32,1.42c-5.28,0-5.98-3.22-5.98-7.8c0-4,0.58-7.43,5.98-7.43c5.51,0,6.12,3.57,5.98,8.27H156.58z
			 M160.32,88.88c0-1.42,0.06-3.45-1.89-3.45c-1.89,0-1.86,2.2-1.86,3.45H160.32z"/>
		<path class="st0" d="M178.42,95.12c0,0.9,0.12,1.83,0.2,2.73h-3.8l-0.17-1.94h-0.06c-0.87,1.51-2.06,2.23-3.83,2.23
			c-2.84,0-3.89-2.12-3.89-4.67c0-4.84,3.74-5.05,7.54-4.99v-1.13c0-1.25-0.17-2.15-1.65-2.15c-1.42,0-1.54,1.07-1.54,2.23h-4
			c0-1.77,0.55-2.9,1.51-3.57c0.93-0.7,2.26-0.96,3.83-0.96c5.19,0,5.86,2.23,5.86,4.9V95.12z M170.88,93.29
			c0,1.04,0.17,2.32,1.51,2.32c2.41,0,2.03-3.25,2.03-4.84C172.38,90.85,170.88,90.68,170.88,93.29z"/>
		<path class="st0" d="M185.9,84.67h0.06c0.81-1.31,1.91-1.77,3.45-1.77c1.94,0,3.65,1.16,3.65,3.19v11.75h-4.09V87.75
			c0-1.31-0.23-2.32-1.54-2.32c-1.31,0-1.54,1.02-1.54,2.32v10.09h-4.09V83.19h4.09V84.67z"/>
		<path class="st0" d="M200.75,76.9v3.22h-4.09V76.9H200.75z M200.75,97.84h-4.09V83.19h4.09V97.84z"/>
		<path class="st0" d="M208.46,84.67h0.06c0.81-1.31,1.91-1.77,3.45-1.77c1.94,0,3.65,1.16,3.65,3.19v11.75h-4.09V87.75
			c0-1.31-0.23-2.32-1.54-2.32c-1.31,0-1.54,1.02-1.54,2.32v10.09h-4.09V83.19h4.09V84.67z"/>
		<path class="st0" d="M230.07,83.19v15.26c0,1.02,0.06,5.02-5.57,5.02c-3.05,0-5.66-0.78-5.74-4.35h4c0,0.61,0.09,1.13,0.35,1.48
			c0.26,0.38,0.73,0.58,1.36,0.58c1.02,0,1.51-0.96,1.51-2.44v-2.81h-0.06c-0.61,1.13-1.77,1.71-3.1,1.71
			c-4.5,0-4.29-4.12-4.29-7.43c0-3.22,0.06-7.31,4.32-7.31c1.45,0,2.7,0.64,3.28,2h0.06v-1.71H230.07z M224.29,95.12
			c1.48,0,1.68-1.54,1.68-4.64c0-3.22-0.15-5.05-1.65-5.05c-1.54,0-1.8,1.07-1.8,5.54C222.53,92.33,222.32,95.12,224.29,95.12z"/>
		<path class="st0" d="M251.85,96.19c-1.65,1.62-3.6,2-5.83,2c-4.82,0-7.48-2.26-7.48-6.35c0-2.78,1.94-4.55,4.12-5.98
			c-1.1-1.42-2.32-3.07-2.32-5.25c0-2.32,2.76-4.06,6.32-4.06c2,0,5.31,0.93,5.31,4.09c0,2.73-1.89,4.12-3.57,5.63l3.28,4.29
			c0.38-1.36,0.46-2.15,0.46-4.18h3.54c0,2.18,0,4.9-1.42,7.16l3.16,4.29h-4.29L251.85,96.19z M245.03,88.44
			c-1.04,0.81-2.12,2-2.12,3.39c0,2,1.19,3.22,3.19,3.22c1.25,0,2.44-0.41,3.19-1.39L245.03,88.44z M247.96,80.96
			c0-1.1-0.67-1.8-1.8-1.8c-0.93,0-1.83,0.67-1.83,1.65c0,1.19,0.78,2.15,1.54,3.02C246.89,83.19,247.96,82.27,247.96,80.96z"/>
		<path class="st0" d="M265.7,97.84V76.9h10.88v3.22h-6.5v5.37h6.21v3.22h-6.21v9.14H265.7z"/>
		<path class="st0" d="M282.9,76.9v3.22h-4.09V76.9H282.9z M282.9,97.84h-4.09V83.19h4.09V97.84z"/>
		<path class="st0" d="M290.96,76.9v20.94h-4.09V76.9H290.96z"/>
		<path class="st0" d="M292.93,83.19h1.65v-2.32l4.09-1.83v4.15h2.12v2.52h-2.12v7.83c0,1.1-0.03,1.83,1.3,1.83
			c0.26,0,0.52,0,0.73-0.06v2.52c-0.55,0.06-1.13,0.15-2.12,0.15c-3.54,0-4-2.35-4-3.25v-9.02h-1.65V83.19z"/>
		<path class="st0" d="M306.54,83.19v1.89h0.06c0.75-1.68,2.15-2.18,3.8-2.18v3.65c-3.6-0.23-3.65,1.86-3.65,3.31v7.98h-4.09V83.19
			H306.54z"/>
		<path class="st0" d="M323.42,95.12c0,0.9,0.12,1.83,0.2,2.73h-3.8l-0.17-1.94h-0.06c-0.87,1.51-2.06,2.23-3.83,2.23
			c-2.84,0-3.89-2.12-3.89-4.67c0-4.84,3.74-5.05,7.54-4.99v-1.13c0-1.25-0.17-2.15-1.65-2.15c-1.42,0-1.54,1.07-1.54,2.23h-4
			c0-1.77,0.55-2.9,1.51-3.57c0.93-0.7,2.26-0.96,3.83-0.96c5.19,0,5.86,2.23,5.86,4.9V95.12z M315.87,93.29
			c0,1.04,0.17,2.32,1.51,2.32c2.41,0,2.03-3.25,2.03-4.84C317.38,90.85,315.87,90.68,315.87,93.29z"/>
		<path class="st0" d="M325.15,83.19h1.65v-2.32l4.09-1.83v4.15h2.12v2.52h-2.12v7.83c0,1.1-0.03,1.83,1.3,1.83
			c0.26,0,0.52,0,0.73-0.06v2.52c-0.55,0.06-1.13,0.15-2.12,0.15c-3.54,0-4-2.35-4-3.25v-9.02h-1.65V83.19z"/>
		<path class="st0" d="M339.31,76.9v3.22h-4.09V76.9H339.31z M339.31,97.84h-4.09V83.19h4.09V97.84z"/>
		<path class="st0" d="M342.58,90.33c0-4,0.58-7.43,5.98-7.43s5.98,3.42,5.98,7.43c0,4.58-0.7,7.8-5.98,7.8
			S342.58,94.91,342.58,90.33z M350.44,90.1c0-3.05-0.14-4.58-1.88-4.58s-1.89,1.54-1.89,4.58c0,4.47,0.38,5.42,1.89,5.42
			C350.07,95.52,350.44,94.56,350.44,90.1z"/>
		<path class="st0" d="M361.52,84.67h0.06c0.81-1.31,1.91-1.77,3.45-1.77c1.94,0,3.65,1.16,3.65,3.19v11.75h-4.09V87.75
			c0-1.31-0.23-2.32-1.54-2.32c-1.31,0-1.54,1.02-1.54,2.32v10.09h-4.09V83.19h4.09V84.67z"/>
	</g>
	<line class="st1" x1="0" y1="57.77" x2="252.75" y2="57.77"/>
	<g>
		<polygon class="st0" points="43.7,0 75.13,0 75.13,5.07 43.7,5.07 43.7,0 		"/>
		<polygon class="st0" points="0,39.25 8.12,39.25 8.12,30.71 13.33,26.05 22.46,39.25 32.08,39.25 19.03,20.94 31.11,10.13 
			20.87,10.13 8.12,22.01 8.12,10.13 0,10.13 0,39.25 		"/>
		<path class="st2" d="M54.99,10.13L42.33,39.25h9.08l1.69-4.66h12.56l1.69,4.66h9.08L63.88,10.13H54.99L54.99,10.13z M63.73,29.35
			h-8.65c0.77-2.19,2.08-5.61,2.8-7.8c0.48-1.48,0.97-3.01,1.4-4.5L63.73,29.35L63.73,29.35z"/>
		<path class="st2" d="M91.28,39.25h13.43c3.58-0.04,13.09-0.21,16.23-9.2c0.43-1.24,0.87-3.09,0.87-5.61
			c0-4.08-1.35-8.17-4.88-10.89c-4.35-3.3-10.63-3.38-14.78-3.42H91.28V39.25L91.28,39.25z M103.31,16.28c2.61,0,5.89-0.04,8.21,2.6
			c1.55,1.81,1.79,3.84,1.79,5.86c0,8.37-6.28,8.58-10.82,8.66h-2.61V16.28H103.31L103.31,16.28z"/>
		<path class="st2" d="M146.36,10.13L133.7,39.25h9.08l1.69-4.66h12.56l1.69,4.66h9.08l-12.56-29.12H146.36L146.36,10.13z
			 M155.1,29.35h-8.65c0.77-2.19,2.08-5.61,2.8-7.8c0.48-1.48,0.97-3.01,1.4-4.5L155.1,29.35L155.1,29.35z"/>
		<path class="st0" d="M182.65,39.25h8.16l-0.24-18.31c2.32,3.88,2.9,4.78,5.99,9.12l6.38,9.2h8.36V10.13h-8.16l0.39,18.69
			c-1.59-2.56-2.42-3.88-5.12-7.96l-7.39-10.72h-8.36V39.25L182.65,39.25z"/>
		<polygon class="st0" points="226.43,15.87 235.32,15.87 235.32,39.25 243.87,39.25 243.87,15.87 252.71,15.87 252.71,10.09 
			226.43,10.09 226.43,15.87 		"/>
	</g>
</g>
</svg>
